<svg width="640" height="320" viewBox="0 0 640 320" fill="none" xmlns="http://www.w3.org/2000/svg">
<g clip-path="url(#clip0)">
<rect width="640" height="320" fill="white"/>
<g clip-path="url(#clip1)">
<rect width="719" height="320" fill="white"/>
<path d="M-1000 -3L4.24261 1001.24M-991.515 -3L12.7279 1001.24M-983.029 -3L21.2132 1001.24M-974.544 -3L29.6985 1001.24M-966.059 -3L38.1837 1001.24M-957.574 -3L46.6691 1001.24M-949.088 -3L55.1543 1001.24M-940.603 -3L63.6396 1001.24M-932.118 -3L72.1249 1001.24M-923.632 -3L80.6102 1001.24M-915.147 -3L89.0955 1001.24M-906.662 -3L97.5807 1001.24M-898.177 -3L106.066 1001.24M-889.691 -3L114.551 1001.24M-881.206 -3L123.037 1001.24M-872.721 -3L131.522 1001.24M-864.236 -3L140.007 1001.24M-855.75 -3L148.492 1001.24M-847.265 -3L156.978 1001.24M-838.78 -3L165.463 1001.24M-830.294 -3L173.948 1001.24M-821.809 -3L182.434 1001.24M-813.324 -3L190.919 1001.24M-804.839 -3L199.404 1001.24M-796.353 -3L207.889 1001.24M-787.868 -3L216.375 1001.24M-779.383 -3L224.86 1001.24M-770.897 -3L233.345 1001.24M-762.412 -3L241.831 1001.24M-753.927 -3L250.316 1001.24M-745.442 -3L258.801 1001.24M-736.956 -3L267.286 1001.24M-728.471 -3L275.772 1001.24M-719.986 -3L284.257 1001.24M-711.5 -3L292.742 1001.24M-703.015 -3L301.228 1001.24M-694.53 -3L309.713 1001.24M-686.045 -3L318.198 1001.24M-677.559 -3L326.683 1001.24M-669.074 -3L335.169 1001.24M-660.589 -3L343.654 1001.24M-652.103 -3L352.139 1001.24M-643.618 -3L360.625 1001.24M-635.133 -3L369.11 1001.24M-626.648 -3L377.595 1001.24M-618.162 -3L386.08 1001.24M-609.677 -3L394.566 1001.24M-601.192 -3L403.051 1001.24M-592.706 -3L411.536 1001.24M-584.221 -3L420.021 1001.24M-575.736 -3L428.507 1001.24M-567.251 -3L436.992 1001.24M-558.765 -3L445.477 1001.24M-550.28 -3L453.963 1001.24M-541.795 -3L462.448 1001.24M-533.31 -3L470.933 1001.24M-524.824 -3L479.418 1001.24M-516.339 -3L487.904 1001.24M-507.854 -3L496.389 1001.24M-499.368 -3L504.874 1001.24M-490.883 -3L513.359 1001.24M-482.398 -3L521.845 1001.24M-473.913 -3L530.33 1001.24M-465.427 -3L538.815 1001.24M-456.942 -3L547.301 1001.24M-448.457 -3L555.786 1001.24M-439.971 -3L564.271 1001.24M-431.486 -3L572.756 1001.24M-423.001 -3L581.242 1001.24M-414.516 -3L589.727 1001.24M-406.03 -3L598.212 1001.24M-397.545 -3L606.698 1001.24M-389.06 -3L615.183 1001.24M-380.574 -3L623.668 1001.24M-372.089 -3L632.153 1001.24M-363.604 -3L640.639 1001.24M-355.119 -3L649.124 1001.24M-346.633 -3L657.609 1001.24M-338.148 -3L666.095 1001.24M-329.663 -3L674.58 1001.24M-321.177 -3L683.065 1001.24M-312.692 -3L691.55 1001.24M-304.207 -3L700.036 1001.24M-295.722 -3L708.521 1001.24M-287.236 -3L717.006 1001.24M-278.751 -3L725.492 1001.24M-270.266 -3L733.977 1001.24M-261.781 -3L742.462 1001.24M-253.295 -3L750.947 1001.24M-244.81 -3L759.433 1001.24M-236.325 -3L767.918 1001.24M-227.839 -3L776.403 1001.24M-219.354 -3L784.889 1001.24M-210.869 -3L793.374 1001.24M-202.384 -3L801.859 1001.24M-193.898 -3L810.344 1001.24M-185.413 -3L818.83 1001.24M-176.928 -3L827.315 1001.24M-168.442 -3L835.8 1001.24M-159.957 -3L844.286 1001.24M-151.472 -3L852.771 1001.24M-142.987 -3L861.256 1001.24M-134.501 -3L869.741 1001.24M-126.016 -3L878.227 1001.24M-117.531 -3L886.712 1001.24M-109.045 -3L895.197 1001.24M-100.56 -3L903.682 1001.24M-92.0749 -3L912.168 1001.24M-83.5896 -3L920.653 1001.24M-75.1043 -3L929.138 1001.24M-66.619 -3L937.624 1001.24M-58.1338 -3L946.109 1001.24M-49.6485 -3L954.594 1001.24M-41.1632 -3L963.079 1001.24M-32.6779 -3L971.565 1001.24M-24.1926 -3L980.05 1001.24M-15.7073 -3L988.535 1001.24M-7.22211 -3L997.021 1001.24M1.26318 -3L1005.51 1001.24M9.74847 -3L1013.99 1001.24M18.2338 -3L1022.48 1001.24M26.719 -3L1030.96 1001.24M35.2043 -3L1039.45 1001.24M43.6896 -3L1047.93 1001.24M52.1749 -3L1056.42 1001.24M60.6602 -3L1064.9 1001.24M69.1455 -3L1073.39 1001.24M77.6307 -3L1081.87 1001.24M86.116 -3L1090.36 1001.24M94.6013 -3L1098.84 1001.24M103.087 -3L1107.33 1001.24M111.572 -3L1115.81 1001.24M120.057 -3L1124.3 1001.24M128.542 -3L1132.79 1001.24M137.028 -3L1141.27 1001.24M145.513 -3L1149.76 1001.24M153.998 -3L1158.24 1001.24M162.484 -3L1166.73 1001.24M170.969 -3L1175.21 1001.24M179.454 -3L1183.7 1001.24M187.939 -3L1192.18 1001.24M196.425 -3L1200.67 1001.24M204.91 -3L1209.15 1001.24M213.395 -3L1217.64 1001.24M221.88 -3L1226.12 1001.24M230.366 -3L1234.61 1001.24M238.851 -3L1243.09 1001.24M247.336 -3L1251.58 1001.24M255.822 -3L1260.06 1001.24M264.307 -3L1268.55 1001.24M272.792 -3L1277.03 1001.24M281.277 -3L1285.52 1001.24M289.763 -3L1294.01 1001.24M298.248 -3L1302.49 1001.24M306.733 -3L1310.98 1001.24M315.219 -3L1319.46 1001.24M323.704 -3L1327.95 1001.24M332.189 -3L1336.43 1001.24M340.674 -3L1344.92 1001.24M349.16 -3L1353.4 1001.24M357.645 -3L1361.89 1001.24M366.13 -3L1370.37 1001.24M374.616 -3L1378.86 1001.24M383.101 -3L1387.34 1001.24M391.586 -3L1395.83 1001.24M400.071 -3L1404.31 1001.24M408.557 -3L1412.8 1001.24M417.042 -3L1421.28 1001.24M425.527 -3L1429.77 1001.24M434.013 -3L1438.26 1001.24M442.498 -3L1446.74 1001.24M450.983 -3L1455.23 1001.24M459.468 -3L1463.71 1001.24M467.954 -3L1472.2 1001.24M476.439 -3L1480.68 1001.24M484.924 -3L1489.17 1001.24M493.41 -3L1497.65 1001.24M501.895 -3L1506.14 1001.24M510.38 -3L1514.62 1001.24M518.865 -3L1523.11 1001.24M527.351 -3L1531.59 1001.24M535.836 -3L1540.08 1001.24M544.321 -3L1548.56 1001.24M552.807 -3L1557.05 1001.24M561.292 -3L1565.53 1001.24M569.777 -3L1574.02 1001.24M578.262 -3L1582.5 1001.24M586.748 -3L1590.99 1001.24M595.233 -3L1599.48 1001.24M603.718 -3L1607.96 1001.24M612.203 -3L1616.45 1001.24M620.689 -3L1624.93 1001.24M629.174 -3L1633.42 1001.24M637.659 -3L1641.9 1001.24M646.145 -3L1650.39 1001.24M654.63 -3L1658.87 1001.24M663.115 -3L1667.36 1001.24M671.6 -3L1675.84 1001.24M680.086 -3L1684.33 1001.24M688.571 -3L1692.81 1001.24M697.056 -3L1701.3 1001.24M705.542 -3L1709.78 1001.24M714.027 -3L1718.27 1001.24M722.512 -3L1726.75 1001.24M730.997 -3L1735.24 1001.24M739.483 -3L1743.73 1001.24M747.968 -3L1752.21 1001.24M756.453 -3L1760.7 1001.24M764.938 -3L1769.18 1001.24M773.424 -3L1777.67 1001.24M781.909 -3L1786.15 1001.24M790.394 -3L1794.64 1001.24M798.88 -3L1803.12 1001.24M807.365 -3L1811.61 1001.24M815.85 -3L1820.09 1001.24M824.335 -3L1828.58 1001.24M832.821 -3L1837.06 1001.24M841.306 -3L1845.55 1001.24M849.791 -3L1854.03 1001.24M858.277 -3L1862.52 1001.24M866.762 -3L1871 1001.24M875.247 -3L1879.49 1001.24M883.732 -3L1887.98 1001.24M892.218 -3L1896.46 1001.24M900.703 -3L1904.95 1001.24M909.188 -3L1913.43 1001.24M917.674 -3L1921.92 1001.24M926.159 -3L1930.4 1001.24M934.644 -3L1938.89 1001.24M943.129 -3L1947.37 1001.24M951.615 -3L1955.86 1001.24M960.1 -3L1964.34 1001.24M968.585 -3L1972.83 1001.24M977.071 -3L1981.31 1001.24M985.556 -3L1989.8 1001.24M994.041 -3L1998.28 1001.24M1002.53 -3L2006.77 1001.24M1011.01 -3L2015.25 1001.24M1019.5 -3L2023.74 1001.24M1027.98 -3L2032.22 1001.24M1036.47 -3L2040.71 1001.24" stroke="#FFFF19" stroke-width="3"/>
</g>
<path d="M143.201 30.2678C145.667 29.4449 148.333 29.4449 150.799 30.2678L158.292 32.7684C160.228 33.4147 162.297 33.5562 164.304 33.1796L172.067 31.7226C174.622 31.2431 177.264 31.6062 179.594 32.7571L186.677 36.2547C188.507 37.1587 190.538 37.5807 192.577 37.4808L200.467 37.0945C203.063 36.9674 205.63 37.6867 207.783 39.1443L214.323 43.5737C216.013 44.7185 217.968 45.4131 220.001 45.5918L227.87 46.2834C230.459 46.5109 232.905 47.5732 234.839 49.3103L240.715 54.589C242.234 55.9533 244.075 56.9075 246.066 57.3615L253.767 59.1181C256.301 59.6961 258.579 61.0815 260.258 63.0657L265.361 69.0954C266.68 70.6538 268.374 71.8499 270.285 72.5707L277.675 75.3595C280.107 76.2773 282.175 77.9599 283.568 80.1544L287.803 86.8227C288.897 88.5461 290.413 89.9618 292.207 90.936L299.149 94.7052C301.433 95.9456 303.253 97.8941 304.334 100.258L307.621 107.441C308.471 109.297 309.78 110.906 311.424 112.115L317.788 116.795C319.882 118.335 321.42 120.513 322.17 123.002L324.448 130.565C325.036 132.52 326.114 134.292 327.579 135.714L333.246 141.216C335.111 143.027 336.338 145.394 336.742 147.962L337.969 155.765C338.286 157.782 339.112 159.685 340.369 161.293L345.235 167.516C346.836 169.563 347.729 172.076 347.779 174.675L347.932 182.572C347.972 184.613 348.531 186.611 349.558 188.375L353.531 195.202C354.838 197.449 355.381 200.06 355.077 202.641L354.153 210.486C353.914 212.513 354.196 214.568 354.973 216.456L357.979 223.761C358.969 226.165 359.151 228.825 358.498 231.341L356.514 238.987C356.002 240.963 356.002 243.037 356.514 245.013L358.498 252.659C359.151 255.175 358.969 257.835 357.979 260.239L354.973 267.544C354.196 269.432 353.914 271.487 354.153 273.514L355.077 281.359C355.381 283.94 354.838 286.551 353.531 288.798L349.558 295.625C348.531 297.389 347.972 299.387 347.932 301.428L347.779 309.325C347.729 311.924 346.836 314.437 345.235 316.484L340.369 322.707C339.112 324.315 338.286 326.218 337.969 328.235L336.742 336.038C336.338 338.605 335.111 340.973 333.246 342.783L327.579 348.286C326.114 349.708 325.036 351.48 324.448 353.435L322.17 360.998C321.42 363.487 319.882 365.665 317.788 367.205L311.424 371.885C309.78 373.094 308.471 374.703 307.621 376.559L304.334 383.742C303.253 386.106 301.433 388.054 299.149 389.295L292.207 393.064C290.413 394.038 288.897 395.454 287.803 397.177L283.568 403.846C282.175 406.04 280.107 407.723 277.675 408.64L270.285 411.429C268.374 412.15 266.68 413.346 265.361 414.905L260.258 420.934C258.579 422.919 256.301 424.304 253.767 424.882L246.066 426.639C244.075 427.092 242.234 428.047 240.715 429.411L234.839 434.69C232.905 436.427 230.459 437.489 227.87 437.717L220.001 438.408C217.968 438.587 216.013 439.282 214.323 440.426L207.783 444.856C205.63 446.313 203.063 447.033 200.467 446.906L192.577 446.519C190.538 446.419 188.507 446.841 186.677 447.745L179.594 451.243C177.264 452.394 174.622 452.757 172.067 452.277L164.304 450.82C162.297 450.444 160.228 450.585 158.292 451.232L150.799 453.732C148.333 454.555 145.667 454.555 143.201 453.732L135.708 451.232C133.772 450.585 131.703 450.444 129.696 450.82L121.933 452.277C119.378 452.757 116.736 452.394 114.406 451.243L107.323 447.745C105.493 446.841 103.462 446.419 101.423 446.519L93.5333 446.906C90.937 447.033 88.3696 446.313 86.2174 444.856L79.6771 440.426C77.9868 439.282 76.0323 438.587 73.9987 438.408L66.13 437.717C63.5406 437.489 61.0951 436.427 59.1613 434.69L53.2851 429.411C51.7664 428.047 49.9248 427.092 47.9344 426.639L40.2331 424.882C37.6988 424.304 35.4207 422.919 33.7416 420.934L28.6388 414.905C27.3201 413.346 25.6255 412.15 23.7155 411.429L16.3252 408.64C13.8932 407.723 11.8249 406.04 10.4316 403.846L6.19742 397.177C5.10311 395.454 3.58722 394.038 1.79313 393.064L-5.14861 389.295C-7.43298 388.054 -9.25283 386.106 -10.3344 383.742L-13.6211 376.559C-14.4706 374.703 -15.7796 373.094 -17.4243 371.885L-23.7881 367.205C-25.8823 365.665 -27.4199 363.487 -28.1695 360.998L-30.4476 353.435C-31.0363 351.48 -32.114 349.708 -33.5788 348.286L-39.2462 342.783C-41.1112 340.973 -42.3378 338.605 -42.7416 336.038L-43.9685 328.234C-44.2856 326.218 -45.112 324.315 -46.3694 322.707L-51.2348 316.484C-52.8359 314.437 -53.7288 311.924 -53.7791 309.325L-53.9321 301.428C-53.9716 299.387 -54.5312 297.389 -55.558 295.625L-59.5307 288.798C-60.8381 286.551 -61.3805 283.94 -61.0765 281.359L-60.1527 273.514C-59.9139 271.487 -60.1964 269.432 -60.9733 267.544L-63.9794 260.239C-64.9686 257.835 -65.1506 255.175 -64.4979 252.659L-62.5144 245.013C-62.0018 243.037 -62.0018 240.963 -62.5144 238.987L-64.4979 231.341C-65.1506 228.825 -64.9686 226.165 -63.9794 223.761L-60.9733 216.456C-60.1964 214.568 -59.9139 212.513 -60.1527 210.486L-61.0765 202.641C-61.3805 200.06 -60.8381 197.449 -59.5307 195.202L-55.558 188.375C-54.5312 186.611 -53.9716 184.613 -53.9321 182.572L-53.7791 174.675C-53.7288 172.076 -52.8359 169.563 -51.2348 167.516L-46.3694 161.293C-45.112 159.685 -44.2856 157.782 -43.9685 155.766L-42.7416 147.962C-42.3378 145.394 -41.1112 143.027 -39.2462 141.216L-33.5788 135.714C-32.114 134.292 -31.0363 132.52 -30.4476 130.565L-28.1695 123.002C-27.4199 120.513 -25.8823 118.335 -23.7881 116.795L-17.4243 112.115C-15.7796 110.906 -14.4706 109.297 -13.6211 107.441L-10.3344 100.258C-9.25283 97.8941 -7.43298 95.9456 -5.14861 94.7052L1.79313 90.936C3.58722 89.9618 5.10311 88.5461 6.19742 86.8227L10.4316 80.1543C11.8249 77.9599 13.8932 76.2773 16.3252 75.3595L23.7155 72.5707C25.6255 71.8499 27.3201 70.6538 28.6388 69.0954L33.7416 63.0657C35.4207 61.0815 37.6988 59.6961 40.2331 59.1181L47.9344 57.3615C49.9248 56.9075 51.7664 55.9533 53.2851 54.589L59.1613 49.3103C61.0951 47.5732 63.5406 46.5109 66.13 46.2834L73.9987 45.5918C76.0323 45.4131 77.9868 44.7185 79.6771 43.5737L86.2174 39.1443C88.3696 37.6867 90.937 36.9674 93.5333 37.0945L101.423 37.4808C103.462 37.5807 105.493 37.1587 107.323 36.2547L114.406 32.7571C116.736 31.6062 119.378 31.2431 121.933 31.7226L129.696 33.1796C131.703 33.5562 133.772 33.4147 135.708 32.7684L143.201 30.2678Z" fill="white"/>
<path d="M70.1953 252H72.8203V244.535H80.2148V242.25H72.8203V237.07H81.1406V234.75H70.1953V252ZM86.4994 252.176C88.6205 252.176 89.6634 251.25 90.2025 250.242H90.2494V252H92.6986V243.516C92.6986 241.102 90.7884 239.438 87.7416 239.438C84.6244 239.438 82.6322 241.172 82.515 243.445H85.0463C85.1517 242.32 86.1713 241.5 87.7181 241.5C89.2767 241.5 90.1908 242.32 90.1908 243.516V243.574C90.1908 244.477 89.4173 244.453 87.097 244.734C84.5775 245.027 82.2103 245.648 82.2103 248.461C82.2103 250.934 84.0384 252.176 86.4994 252.176ZM87.0384 250.172C85.6088 250.172 84.7298 249.562 84.7181 248.508C84.7064 247.266 85.9252 246.773 87.2611 246.586C88.5619 246.41 89.8627 246.199 90.2025 245.941V247.371C90.2025 248.883 89.183 250.172 87.0384 250.172ZM104.128 243.445C104.057 240.938 102.077 239.438 99.2761 239.438C96.4519 239.438 94.5183 240.891 94.5183 243.105C94.5183 244.934 95.7136 246.129 98.0808 246.656L100.108 247.102C101.163 247.336 101.866 247.734 101.866 248.578C101.866 249.551 100.905 250.148 99.3933 250.148C97.823 250.148 96.8738 249.516 96.7331 248.191H94.237C94.4128 250.852 96.5222 252.188 99.4284 252.188C102.276 252.188 104.397 250.805 104.397 248.438C104.397 246.668 103.249 245.59 100.905 245.062L98.7956 244.594C97.6706 244.336 97.0027 243.867 97.0027 243.047C97.0027 242.121 97.9402 241.488 99.2995 241.488C100.741 241.488 101.702 242.25 101.725 243.445H104.128ZM110.26 252.07C110.916 252.07 111.397 252.023 111.701 251.965L111.443 249.879C111.279 249.914 110.975 249.938 110.67 249.938C109.885 249.938 109.24 249.797 109.24 248.473V241.688H111.607V239.625H109.24V236.59H106.721V239.625H104.94V241.688H106.721V248.883C106.721 251.133 108.338 252.07 110.26 252.07ZM123.098 252.176C125.22 252.176 126.263 251.25 126.802 250.242H126.848V252H129.298V243.516C129.298 241.102 127.388 239.438 124.341 239.438C121.223 239.438 119.231 241.172 119.114 243.445H121.645C121.751 242.32 122.77 241.5 124.317 241.5C125.876 241.5 126.79 242.32 126.79 243.516V243.574C126.79 244.477 126.016 244.453 123.696 244.734C121.177 245.027 118.809 245.648 118.809 248.461C118.809 250.934 120.638 252.176 123.098 252.176ZM123.638 250.172C122.208 250.172 121.329 249.562 121.317 248.508C121.305 247.266 122.524 246.773 123.86 246.586C125.161 246.41 126.462 246.199 126.802 245.941V247.371C126.802 248.883 125.782 250.172 123.638 250.172ZM133.86 244.852C133.86 242.602 135.172 241.617 136.836 241.617C138.559 241.617 139.672 242.648 139.672 244.617V252H142.18V244.312C142.18 241.113 140.106 239.438 137.551 239.438C135.617 239.438 134.387 240.422 133.836 241.711H133.789V239.625H131.34V252H133.86V244.852ZM148.921 252.188C150.55 252.188 151.898 251.496 152.707 250.102H152.753V252H155.261V234.75H152.742V241.512H152.695C151.968 240.152 150.562 239.438 148.91 239.438C145.863 239.438 143.707 241.852 143.707 245.812C143.707 249.727 145.816 252.188 148.921 252.188ZM149.519 250.066C147.574 250.066 146.226 248.59 146.226 245.812C146.226 243.023 147.574 241.57 149.519 241.57C151.582 241.57 152.882 243.211 152.882 245.812C152.882 248.391 151.582 250.066 149.519 250.066ZM172.6 243.445C172.53 240.938 170.549 239.438 167.748 239.438C164.924 239.438 162.99 240.891 162.99 243.105C162.99 244.934 164.186 246.129 166.553 246.656L168.58 247.102C169.635 247.336 170.338 247.734 170.338 248.578C170.338 249.551 169.377 250.148 167.865 250.148C166.295 250.148 165.346 249.516 165.205 248.191H162.709C162.885 250.852 164.994 252.188 167.901 252.188C170.748 252.188 172.869 250.805 172.869 248.438C172.869 246.668 171.721 245.59 169.377 245.062L167.268 244.594C166.143 244.336 165.475 243.867 165.475 243.047C165.475 242.121 166.412 241.488 167.772 241.488C169.213 241.488 170.174 242.25 170.198 243.445H172.6ZM174.384 252H176.892V239.625H174.384V252ZM175.65 237.457C176.494 237.457 177.185 236.777 177.197 235.945C177.185 235.102 176.494 234.422 175.65 234.422C174.783 234.422 174.091 235.102 174.103 235.945C174.091 236.777 174.783 237.457 175.65 237.457ZM178.923 252H181.431V244.559C181.431 242.625 182.673 241.605 184.103 241.605C185.497 241.605 186.481 242.531 186.481 243.938V252H188.954V244.301C188.954 242.73 189.927 241.605 191.567 241.605C192.892 241.605 194.005 242.344 194.005 244.113V252H196.513V243.879C196.513 240.902 194.743 239.438 192.435 239.438C190.56 239.438 189.118 240.422 188.603 241.711H188.556C188.075 240.387 186.751 239.438 185.028 239.438C183.317 239.438 181.923 240.375 181.407 241.711H181.36V239.625H178.923V252ZM198.555 256.875H201.063V250.137H201.121C201.86 251.484 203.266 252.188 204.895 252.188C208 252.188 210.121 249.727 210.121 245.812C210.121 241.852 207.965 239.438 204.907 239.438C203.266 239.438 201.93 240.141 201.121 241.547H201.063V239.625H198.555V256.875ZM200.934 245.812C200.934 243.211 202.235 241.559 204.297 241.559C206.254 241.559 207.59 243.035 207.59 245.812C207.59 248.59 206.254 250.043 204.297 250.043C202.235 250.043 200.934 248.391 200.934 245.812ZM214.168 234.75H211.648V252H214.168V234.75ZM221.53 252.188C224.331 252.188 226.452 250.605 226.921 248.203H224.507C224.155 249.363 222.948 250.125 221.542 250.125C219.468 250.125 218.226 248.484 218.226 246.469H227.073V245.824C227.073 242.039 224.976 239.438 221.472 239.438C217.968 239.438 215.694 242.062 215.694 245.836C215.694 249.609 217.98 252.188 221.53 252.188ZM218.237 244.629C218.343 242.977 219.538 241.488 221.448 241.488C223.23 241.488 224.565 242.766 224.624 244.629H218.237ZM233.513 237.07H239.08V252H241.705V237.07H247.271V234.75H233.513V237.07ZM247.275 257.062H248.775C250.638 257.062 251.669 256.336 252.208 254.93L257.997 239.625H255.337L252.021 249.047H251.974L248.622 239.625H245.927L250.626 252C250.626 252 249.982 253.84 249.982 253.852C249.747 254.484 249.489 254.848 248.61 254.848H247.275V257.062ZM259.137 256.875H261.645V250.137H261.704C262.442 251.484 263.848 252.188 265.477 252.188C268.583 252.188 270.704 249.727 270.704 245.812C270.704 241.852 268.547 239.438 265.489 239.438C263.848 239.438 262.512 240.141 261.704 241.547H261.645V239.625H259.137V256.875ZM261.516 245.812C261.516 243.211 262.817 241.559 264.879 241.559C266.836 241.559 268.172 243.035 268.172 245.812C268.172 248.59 266.836 250.043 264.879 250.043C262.817 250.043 261.516 248.391 261.516 245.812ZM277.715 252.188C280.515 252.188 282.637 250.605 283.105 248.203H280.691C280.34 249.363 279.133 250.125 277.726 250.125C275.652 250.125 274.41 248.484 274.41 246.469H283.258V245.824C283.258 242.039 281.16 239.438 277.656 239.438C274.152 239.438 271.879 242.062 271.879 245.836C271.879 249.609 274.164 252.188 277.715 252.188ZM274.422 244.629C274.527 242.977 275.723 241.488 277.633 241.488C279.414 241.488 280.75 242.766 280.808 244.629H274.422ZM291.089 252.281C295.109 252.281 297.57 250.301 297.57 247.137C297.57 244.266 295.46 243.094 292.835 242.438L291.335 242.062C289.823 241.688 287.386 241.301 287.386 239.508C287.386 237.844 288.675 236.719 290.878 236.719C293.128 236.719 294.441 237.973 294.57 239.883H297.136C297.054 236.602 294.734 234.469 290.937 234.469C287.116 234.469 284.714 236.484 284.714 239.578C284.714 242.426 287.07 243.48 289.402 244.066L291.323 244.547C293.128 245.004 294.909 245.238 294.909 247.195C294.909 248.859 293.491 249.996 291.136 249.996C288.546 249.996 286.976 248.578 286.964 246.305H284.351C284.351 250.055 286.929 252.281 291.089 252.281ZM304.428 252.188C307.698 252.188 309.526 250.02 309.667 247.664H307.147C307.088 249.035 305.905 250.043 304.417 250.043C302.506 250.043 301.182 248.355 301.182 245.836C301.182 243.281 302.471 241.559 304.405 241.559C306.092 241.559 307.006 242.707 307.229 243.949H309.667C309.573 241.816 307.721 239.438 304.393 239.438C300.948 239.438 298.651 242.074 298.651 245.836C298.651 249.551 300.995 252.188 304.428 252.188ZM311.182 252H313.689V244.664C313.689 242.695 314.838 241.758 316.209 241.758C316.771 241.758 317.31 241.852 317.533 241.922V239.531C317.322 239.484 316.994 239.438 316.619 239.438C315.107 239.438 314.111 240.281 313.654 241.664H313.584V239.625H311.182V252ZM318.697 252H321.204V239.625H318.697V252ZM319.962 237.457C320.806 237.457 321.497 236.777 321.509 235.945C321.497 235.102 320.806 234.422 319.962 234.422C319.095 234.422 318.404 235.102 318.415 235.945C318.404 236.777 319.095 237.457 319.962 237.457ZM323.235 256.875H325.743V250.137H325.801C326.54 251.484 327.946 252.188 329.575 252.188C332.68 252.188 334.801 249.727 334.801 245.812C334.801 241.852 332.645 239.438 329.587 239.438C327.946 239.438 326.61 240.141 325.801 241.547H325.743V239.625H323.235V256.875ZM325.614 245.812C325.614 243.211 326.915 241.559 328.977 241.559C330.934 241.559 332.27 243.035 332.27 245.812C332.27 248.59 330.934 250.043 328.977 250.043C326.915 250.043 325.614 248.391 325.614 245.812ZM340.371 252.07C341.027 252.07 341.508 252.023 341.812 251.965L341.555 249.879C341.391 249.914 341.086 249.938 340.781 249.938C339.996 249.938 339.352 249.797 339.352 248.473V241.688H341.719V239.625H339.352V236.59H336.832V239.625H335.051V241.688H336.832V248.883C336.832 251.133 338.449 252.07 340.371 252.07ZM354.405 252.246C355.94 252.246 357.675 251.719 358.846 250.641L360.007 252H362.854L360.405 249.059C361.132 248.086 361.835 246.551 361.835 244.16H359.561C359.561 245.32 359.292 246.34 358.846 247.195L355.401 243.07L356.561 242.203C357.991 241.16 358.858 239.965 358.858 238.324C358.858 236.309 357.229 234.562 354.592 234.562C351.944 234.562 350.221 236.262 350.245 238.652C350.233 240.188 351.03 241.406 352.12 242.742C350.139 244.09 348.803 245.367 348.815 247.406C348.803 250.195 350.925 252.246 354.405 252.246ZM357.428 248.965C356.538 249.703 355.46 250.102 354.405 250.102C352.53 250.113 351.311 248.836 351.323 247.336C351.311 246.82 351.745 245.754 353.116 244.77L353.561 244.441L357.428 248.965ZM354.007 241.406C353.21 240.445 352.6 239.555 352.612 238.688C352.6 237.68 353.432 236.672 354.639 236.672C355.8 236.672 356.55 237.574 356.561 238.395C356.55 239.414 355.987 240.035 355.061 240.656L354.007 241.406ZM374.755 252.281C377.99 252.281 379.958 250.312 379.958 247.09V234.75H377.333V247.09C377.333 248.895 376.396 249.914 374.744 249.914C373.103 249.914 372.142 248.895 372.142 247.125V246.305H369.564V247.125C369.564 250.348 371.533 252.281 374.755 252.281ZM385.903 252.176C388.024 252.176 389.067 251.25 389.606 250.242H389.653V252H392.102V243.516C392.102 241.102 390.192 239.438 387.145 239.438C384.028 239.438 382.036 241.172 381.919 243.445H384.45C384.555 242.32 385.575 241.5 387.122 241.5C388.68 241.5 389.595 242.32 389.595 243.516V243.574C389.595 244.477 388.821 244.453 386.501 244.734C383.981 245.027 381.614 245.648 381.614 248.461C381.614 250.934 383.442 252.176 385.903 252.176ZM386.442 250.172C385.013 250.172 384.134 249.562 384.122 248.508C384.11 247.266 385.329 246.773 386.665 246.586C387.966 246.41 389.266 246.199 389.606 245.941V247.371C389.606 248.883 388.587 250.172 386.442 250.172ZM404.856 239.625H402.195L398.879 249.023H398.832L395.481 239.625H392.785L397.473 252H400.168L404.856 239.625ZM409.535 252.176C411.656 252.176 412.699 251.25 413.238 250.242H413.285V252H415.734V243.516C415.734 241.102 413.824 239.438 410.777 239.438C407.66 239.438 405.668 241.172 405.55 243.445H408.082C408.187 242.32 409.207 241.5 410.753 241.5C412.312 241.5 413.226 242.32 413.226 243.516V243.574C413.226 244.477 412.453 244.453 410.132 244.734C407.613 245.027 405.246 245.648 405.246 248.461C405.246 250.934 407.074 252.176 409.535 252.176ZM410.074 250.172C408.644 250.172 407.765 249.562 407.753 248.508C407.742 247.266 408.96 246.773 410.296 246.586C411.597 246.41 412.898 246.199 413.238 245.941V247.371C413.238 248.883 412.218 250.172 410.074 250.172ZM424.081 252.281C428.1 252.281 430.561 250.301 430.561 247.137C430.561 244.266 428.452 243.094 425.827 242.438L424.327 242.062C422.815 241.688 420.378 241.301 420.378 239.508C420.378 237.844 421.667 236.719 423.87 236.719C426.12 236.719 427.432 237.973 427.561 239.883H430.128C430.046 236.602 427.725 234.469 423.929 234.469C420.108 234.469 417.706 236.484 417.706 239.578C417.706 242.426 420.061 243.48 422.393 244.066L424.315 244.547C426.12 245.004 427.901 245.238 427.901 247.195C427.901 248.859 426.483 249.996 424.128 249.996C421.538 249.996 419.968 248.578 419.956 246.305H417.343C417.343 250.055 419.921 252.281 424.081 252.281ZM437.42 252.188C440.69 252.188 442.518 250.02 442.658 247.664H440.139C440.08 249.035 438.897 250.043 437.408 250.043C435.498 250.043 434.174 248.355 434.174 245.836C434.174 243.281 435.463 241.559 437.397 241.559C439.084 241.559 439.998 242.707 440.221 243.949H442.658C442.565 241.816 440.713 239.438 437.385 239.438C433.94 239.438 431.643 242.074 431.643 245.836C431.643 249.551 433.987 252.188 437.42 252.188ZM444.173 252H446.681V244.664C446.681 242.695 447.83 241.758 449.201 241.758C449.763 241.758 450.302 241.852 450.525 241.922V239.531C450.314 239.484 449.986 239.438 449.611 239.438C448.099 239.438 447.103 240.281 446.646 241.664H446.576V239.625H444.173V252ZM451.688 252H454.196V239.625H451.688V252ZM452.954 237.457C453.798 237.457 454.489 236.777 454.501 235.945C454.489 235.102 453.798 234.422 452.954 234.422C452.087 234.422 451.395 235.102 451.407 235.945C451.395 236.777 452.087 237.457 452.954 237.457ZM456.227 256.875H458.735V250.137H458.793C459.532 251.484 460.938 252.188 462.567 252.188C465.672 252.188 467.793 249.727 467.793 245.812C467.793 241.852 465.637 239.438 462.578 239.438C460.938 239.438 459.602 240.141 458.793 241.547H458.735V239.625H456.227V256.875ZM458.606 245.812C458.606 243.211 459.907 241.559 461.969 241.559C463.926 241.559 465.262 243.035 465.262 245.812C465.262 248.59 463.926 250.043 461.969 250.043C459.907 250.043 458.606 248.391 458.606 245.812ZM473.363 252.07C474.019 252.07 474.5 252.023 474.804 251.965L474.547 249.879C474.383 249.914 474.078 249.938 473.773 249.938C472.988 249.938 472.343 249.797 472.343 248.473V241.688H474.711V239.625H472.343V236.59H469.824V239.625H468.043V241.688H469.824V248.883C469.824 251.133 471.441 252.07 473.363 252.07ZM74.8945 281.188C76.5234 281.188 77.8711 280.496 78.6797 279.102H78.7266V281H81.2344V263.75H78.7148V270.512H78.668C77.9414 269.152 76.5352 268.438 74.8828 268.438C71.8359 268.438 69.6797 270.852 69.6797 274.812C69.6797 278.727 71.7891 281.188 74.8945 281.188ZM75.4922 279.066C73.5469 279.066 72.1992 277.59 72.1992 274.812C72.1992 272.023 73.5469 270.57 75.4922 270.57C77.5547 270.57 78.8555 272.211 78.8555 274.812C78.8555 277.391 77.5547 279.066 75.4922 279.066ZM88.5853 281.188C91.3861 281.188 93.5072 279.605 93.9759 277.203H91.5619C91.2103 278.363 90.0033 279.125 88.597 279.125C86.5228 279.125 85.2806 277.484 85.2806 275.469H94.1283V274.824C94.1283 271.039 92.0306 268.438 88.5267 268.438C85.0228 268.438 82.7494 271.062 82.7494 274.836C82.7494 278.609 85.0345 281.188 88.5853 281.188ZM85.2923 273.629C85.3978 271.977 86.5931 270.488 88.5033 270.488C90.2845 270.488 91.6205 271.766 91.6791 273.629H85.2923ZM106.436 268.625H103.776L100.46 278.023H100.413L97.0613 268.625H94.3659L99.0534 281H101.749L106.436 268.625ZM112.428 281.188C115.229 281.188 117.35 279.605 117.818 277.203H115.404C115.053 278.363 113.846 279.125 112.44 279.125C110.365 279.125 109.123 277.484 109.123 275.469H117.971V274.824C117.971 271.039 115.873 268.438 112.369 268.438C108.865 268.438 106.592 271.062 106.592 274.836C106.592 278.609 108.877 281.188 112.428 281.188ZM109.135 273.629C109.24 271.977 110.436 270.488 112.346 270.488C114.127 270.488 115.463 271.766 115.522 273.629H109.135ZM122.017 263.75H119.498V281H122.017V263.75ZM129.52 281.188C133.083 281.188 135.497 278.586 135.497 274.836C135.497 271.039 133.071 268.438 129.52 268.438C125.97 268.438 123.544 271.039 123.544 274.836C123.544 278.586 125.97 281.188 129.52 281.188ZM129.52 279.055C127.505 279.055 126.087 277.355 126.075 274.836C126.075 272.281 127.481 270.547 129.52 270.547C131.536 270.547 132.966 272.281 132.966 274.836C132.966 277.355 131.536 279.055 129.52 279.055ZM137.012 285.875H139.52V279.137H139.578C140.317 280.484 141.723 281.188 143.352 281.188C146.457 281.188 148.578 278.727 148.578 274.812C148.578 270.852 146.422 268.438 143.363 268.438C141.723 268.438 140.387 269.141 139.578 270.547H139.52V268.625H137.012V285.875ZM139.391 274.812C139.391 272.211 140.692 270.559 142.754 270.559C144.711 270.559 146.047 272.035 146.047 274.812C146.047 277.59 144.711 279.043 142.754 279.043C140.692 279.043 139.391 277.391 139.391 274.812ZM150.105 281H152.613V273.559C152.613 271.625 153.855 270.605 155.285 270.605C156.679 270.605 157.664 271.531 157.664 272.938V281H160.136V273.301C160.136 271.73 161.109 270.605 162.75 270.605C164.074 270.605 165.187 271.344 165.187 273.113V281H167.695V272.879C167.695 269.902 165.925 268.438 163.617 268.438C161.742 268.438 160.3 269.422 159.785 270.711H159.738C159.257 269.387 157.933 268.438 156.21 268.438C154.5 268.438 153.105 269.375 152.589 270.711H152.543V268.625H150.105V281ZM175.058 281.188C177.858 281.188 179.979 279.605 180.448 277.203H178.034C177.683 278.363 176.475 279.125 175.069 279.125C172.995 279.125 171.753 277.484 171.753 275.469H180.6V274.824C180.6 271.039 178.503 268.438 174.999 268.438C171.495 268.438 169.222 271.062 169.222 274.836C169.222 278.609 171.507 281.188 175.058 281.188ZM171.765 273.629C171.87 271.977 173.065 270.488 174.975 270.488C176.757 270.488 178.093 271.766 178.151 273.629H171.765ZM184.647 273.852C184.647 271.602 185.959 270.617 187.623 270.617C189.346 270.617 190.459 271.648 190.459 273.617V281H192.967V273.312C192.967 270.113 190.893 268.438 188.338 268.438C186.405 268.438 185.174 269.422 184.623 270.711H184.576V268.625H182.127V281H184.647V273.852ZM199.31 281.07C199.966 281.07 200.447 281.023 200.752 280.965L200.494 278.879C200.33 278.914 200.025 278.938 199.72 278.938C198.935 278.938 198.291 278.797 198.291 277.473V270.688H200.658V268.625H198.291V265.59H195.771V268.625H193.99V270.688H195.771V277.883C195.771 280.133 197.388 281.07 199.31 281.07ZM211.071 281H213.555L216.145 272.223H216.192L218.746 281H221.266L224.992 268.625H222.391L219.918 277.531H219.871L217.422 268.625H214.926L212.43 277.578H212.383L209.946 268.625H207.344L211.071 281ZM226.133 281H228.64V268.625H226.133V281ZM227.398 266.457C228.242 266.457 228.933 265.777 228.945 264.945C228.933 264.102 228.242 263.422 227.398 263.422C226.531 263.422 225.84 264.102 225.851 264.945C225.84 265.777 226.531 266.457 227.398 266.457ZM235.019 281.07C235.675 281.07 236.155 281.023 236.46 280.965L236.202 278.879C236.038 278.914 235.733 278.938 235.429 278.938C234.644 278.938 233.999 278.797 233.999 277.473V270.688H236.366V268.625H233.999V265.59H231.48V268.625H229.698V270.688H231.48V277.883C231.48 280.133 233.097 281.07 235.019 281.07ZM240.53 273.746C240.53 271.496 241.913 270.512 243.588 270.512C245.311 270.512 246.413 271.531 246.413 273.5V281H248.92V273.195C248.92 269.996 246.846 268.332 244.303 268.332C242.358 268.332 241.104 269.316 240.553 270.594H240.495V263.75H238.022V281H240.53V273.746ZM262.193 281.188C264.993 281.188 267.114 279.605 267.583 277.203H265.169C264.818 278.363 263.61 279.125 262.204 279.125C260.13 279.125 258.888 277.484 258.888 275.469H267.735V274.824C267.735 271.039 265.638 268.438 262.134 268.438C258.63 268.438 256.357 271.062 256.357 274.836C256.357 278.609 258.642 281.188 262.193 281.188ZM258.9 273.629C259.005 271.977 260.2 270.488 262.11 270.488C263.892 270.488 265.228 271.766 265.286 273.629H258.9ZM278.649 272.445C278.579 269.938 276.598 268.438 273.797 268.438C270.973 268.438 269.04 269.891 269.04 272.105C269.04 273.934 270.235 275.129 272.602 275.656L274.629 276.102C275.684 276.336 276.387 276.734 276.387 277.578C276.387 278.551 275.426 279.148 273.915 279.148C272.344 279.148 271.395 278.516 271.254 277.191H268.758C268.934 279.852 271.043 281.188 273.95 281.188C276.797 281.188 278.918 279.805 278.918 277.438C278.918 275.668 277.77 274.59 275.426 274.062L273.317 273.594C272.192 273.336 271.524 272.867 271.524 272.047C271.524 271.121 272.461 270.488 273.821 270.488C275.262 270.488 276.223 271.25 276.247 272.445H278.649ZM286.773 281.188C289.879 281.188 291.988 278.727 291.988 274.812C291.988 270.852 289.832 268.438 286.785 268.438C285.133 268.438 283.726 269.152 283 270.512H282.953V263.75H280.433V281H282.941V279.102H282.988C283.797 280.496 285.144 281.188 286.773 281.188ZM286.176 279.066C284.113 279.066 282.812 277.391 282.812 274.812C282.812 272.211 284.113 270.57 286.176 270.57C288.121 270.57 289.469 272.023 289.469 274.812C289.469 277.59 288.121 279.066 286.176 279.066ZM301.835 275.773C301.835 278.023 300.523 279.008 298.847 279.008C297.136 279.008 296.023 277.977 296.023 276.008V268.625H293.503V276.312C293.503 279.512 295.589 281.188 298.132 281.188C300.077 281.188 301.308 280.203 301.859 278.914H301.905V281H304.343V268.625H301.835V275.773ZM306.385 281H308.893V268.625H306.385V281ZM307.651 266.457C308.495 266.457 309.186 265.777 309.198 264.945C309.186 264.102 308.495 263.422 307.651 263.422C306.784 263.422 306.092 264.102 306.104 264.945C306.092 265.777 306.784 266.457 307.651 266.457ZM313.443 263.75H310.924V281H313.443V263.75ZM320.185 281.188C321.814 281.188 323.161 280.496 323.97 279.102H324.017V281H326.525V263.75H324.005V270.512H323.958C323.232 269.152 321.825 268.438 320.173 268.438C317.126 268.438 314.97 270.852 314.97 274.812C314.97 278.727 317.079 281.188 320.185 281.188ZM320.783 279.066C318.837 279.066 317.49 277.59 317.49 274.812C317.49 272.023 318.837 270.57 320.783 270.57C322.845 270.57 324.146 272.211 324.146 274.812C324.146 277.391 322.845 279.066 320.783 279.066Z" fill="black"/>
<path fill-rule="evenodd" clip-rule="evenodd" d="M102.023 193.064C88.2605 193.064 84.9686 187.224 84.9686 181.8C84.9686 177.619 87.2286 172.986 99.2066 172.986H102.484C106.1 172.986 108.134 168.353 108.134 165.076C108.134 162.929 107.23 161.234 105.196 161.234C103.146 161.234 100.582 161.556 98.1894 161.856C96.0972 162.118 94.1363 162.364 92.7656 162.364C88.4716 162.364 86.7766 159.991 86.5506 156.601C106.439 154.68 122.259 146.996 122.259 133.888C122.259 123.153 115.705 114 101.354 114C85.1946 114 73.5556 126.204 71.8606 146.431C67.0016 144.962 65.3066 141.233 65.3066 135.357C65.3066 132.11 66.1935 129.455 66.8828 127.391C67.3211 126.078 67.6796 125.005 67.6796 124.17C67.6796 122.475 66.5496 121.345 64.7416 121.458C61.9166 121.345 58.5266 121.91 56.6056 123.492C53.3286 126.317 51.1816 130.611 51.1816 137.843C51.1816 147.561 57.0576 155.471 72.1996 156.827C73.5556 162.138 77.0586 165.641 82.2566 168.014C72.0866 171.63 68.9226 178.184 68.9226 184.738C68.9226 198.411 80.5425 204.541 102.023 204.541H147.94C162.192 204.541 167.425 195.841 167.425 187.05C167.425 178.387 161.101 172.112 150.244 170.453L140.168 169.063C134.598 168.148 132.499 165.862 132.499 162.662C132.499 159.313 136.048 157.752 141.016 157.752H174.229V188.816C174.229 200.071 181.534 204.541 192.128 204.541C192.128 204.541 203.558 204.706 205.158 204.541H219.504V171.325C219.504 162.607 224.746 158.193 231.201 158.193C233.739 158.193 236.608 158.579 237.877 159.021V145.889C236.774 145.613 235.119 145.392 233.298 145.392C226.346 145.392 221.545 149.31 219.393 156.372H218.952V146.275H205.158V193.064C204.275 193.174 195.196 193.064 195.196 193.064C191.333 193.064 188.63 192.181 188.63 186.443V157.752H196.775V146.275H188.63V131.819H174.229V146.275H143.099C126.919 146.275 118.263 151.289 118.263 163.159C118.263 171.877 124.071 177.793 135.52 179.644L144.837 181.267C148.91 182.04 152.746 183.836 152.746 187.394C152.746 190.506 151.13 193.064 146.066 193.064H102.023ZM102.71 127.56C106.665 127.56 109.49 130.046 109.49 134.792C109.49 140.103 102.936 145.414 87.1156 146.77C89.0366 135.018 95.1386 127.56 102.71 127.56Z" fill="black"/>
<path fill-rule="evenodd" clip-rule="evenodd" d="M264.062 205.424C278.021 205.424 288.118 197.92 290.215 186.388H276.973C275.428 191.354 270.241 194.444 264.227 194.499C255.289 194.444 249.992 187.602 250.047 179.105V178.884H290.822V175.408C290.822 157.421 280.504 145.392 263.786 145.392C246.847 145.392 235.922 157.696 235.922 175.463C235.922 193.561 246.847 205.424 264.062 205.424ZM250.102 169.559C250.544 162.497 255.785 156.317 263.786 156.317C271.345 156.317 277.138 161.724 277.414 169.559H250.102Z" fill="black"/>
<path fill-rule="evenodd" clip-rule="evenodd" d="M373.623 196.32C370.809 201.616 365.512 205.424 356.187 205.424C344.545 205.424 336.048 199.63 336.048 188.043C336.048 174.801 346.863 171.435 358.891 170.166C359.344 170.117 359.785 170.07 360.214 170.024C369.955 168.982 373.347 168.619 373.347 164.814V164.538C373.347 159.628 369.485 156.372 363.029 156.372C356.574 156.372 352.215 159.738 351.718 164.593H337.759C338.366 153.834 347.58 145.392 363.14 145.392C378.258 145.392 387.693 153.338 387.693 164.593V204.541H373.844V196.32H373.623ZM350.063 187.822C350.118 192.292 353.87 194.885 359.829 194.885C368.602 194.885 373.457 189.698 373.457 183.022V176.842C371.692 177.946 366.505 178.884 360.877 179.656C355.029 180.484 350.008 182.691 350.063 187.822Z" fill="black"/>
<path d="M295.432 123.322H309.833V204.541H295.432V123.322Z" fill="black"/>
<path d="M331.052 123.322H316.651V204.541H331.052V123.322Z" fill="black"/>
</g>
<defs>
<clipPath id="clip0">
<rect width="640" height="320" fill="white"/>
</clipPath>
<clipPath id="clip1">
<rect width="719" height="320" fill="white"/>
</clipPath>
</defs>
</svg>
