<svg width="390" height="160" viewBox="0 0 390 160" fill="none" xmlns="http://www.w3.org/2000/svg">
<path fill-rule="evenodd" clip-rule="evenodd" d="M77.0235 113.209C63.2605 113.209 59.9686 107.369 59.9686 101.945C59.9686 97.7635 62.2286 93.1305 74.2066 93.1305H77.4836C81.0996 93.1305 83.1336 88.4975 83.1336 85.2205C83.1336 83.0735 82.2296 81.3785 80.1956 81.3785C78.146 81.3785 75.5819 81.7001 73.1894 82.0002C71.0972 82.2626 69.1363 82.5085 67.7656 82.5085C63.4716 82.5085 61.7766 80.1355 61.5506 76.7455C81.4386 74.8245 97.2587 67.1405 97.2587 54.0325C97.2587 43.2975 90.7046 34.1445 76.3536 34.1445C60.1946 34.1445 48.5556 46.3485 46.8606 66.5755C42.0016 65.1065 40.3066 61.3775 40.3066 55.5015C40.3066 52.2548 41.1935 49.5993 41.8828 47.535C42.3211 46.2225 42.6796 45.149 42.6796 44.3145C42.6796 42.6195 41.5496 41.4895 39.7416 41.6025C36.9166 41.4895 33.5266 42.0545 31.6056 43.6365C28.3286 46.4615 26.1816 50.7555 26.1816 57.9875C26.1816 67.7055 32.0576 75.6155 47.1996 76.9715C48.5556 82.2825 52.0586 85.7855 57.2566 88.1585C47.0866 91.7745 43.9226 98.3285 43.9226 104.883C43.9226 118.556 55.5425 124.685 77.0235 124.685H122.94C137.192 124.685 142.425 115.986 142.425 107.195C142.425 98.5319 136.101 92.2563 125.244 90.5971L115.168 89.2072C109.598 88.2924 107.499 86.007 107.499 82.8068C107.499 79.4574 111.048 77.8962 116.016 77.8962H149.229V108.96C149.229 120.216 156.534 124.685 167.128 124.685C167.128 124.685 178.558 124.851 180.158 124.685H194.504V91.4694C194.504 82.7516 199.746 78.3376 206.201 78.3376C208.739 78.3376 211.608 78.7238 212.877 79.1652V66.0334C211.774 65.7575 210.119 65.5368 208.298 65.5368C201.346 65.5368 196.545 69.4543 194.393 76.5168H193.952V66.4196H180.158V113.209C179.275 113.319 170.196 113.209 170.196 113.209C166.333 113.209 163.63 112.326 163.63 106.588V77.8962H171.775V66.4196H163.63V51.9636H149.229V66.4196H118.099C101.919 66.4196 93.2633 71.4338 93.2633 83.3034C93.2633 92.0212 99.0715 97.9376 110.52 99.7881L119.837 101.412C123.91 102.185 127.746 103.981 127.746 107.539C127.746 110.651 126.13 113.209 121.066 113.209H77.0235ZM77.7096 47.7045C81.6646 47.7045 84.4896 50.1905 84.4896 54.9365C84.4896 60.2475 77.9356 65.5585 62.1156 66.9145C64.0366 55.1625 70.1386 47.7045 77.7096 47.7045Z" fill="black"/>
<path fill-rule="evenodd" clip-rule="evenodd" d="M239.062 125.568C253.021 125.568 263.118 118.064 265.215 106.532H251.973C250.428 111.498 245.241 114.588 239.227 114.643C230.289 114.588 224.992 107.746 225.047 99.2492V99.0285H265.822V95.5524C265.822 77.5651 255.504 65.5368 238.786 65.5368C221.847 65.5368 210.922 77.841 210.922 95.6076C210.922 113.705 221.847 125.568 239.062 125.568ZM225.102 89.7038C225.544 82.6413 230.785 76.4616 238.786 76.4616C246.345 76.4616 252.138 81.8688 252.414 89.7038H225.102Z" fill="black"/>
<path fill-rule="evenodd" clip-rule="evenodd" d="M348.623 116.464C345.809 121.761 340.512 125.568 331.187 125.568C319.545 125.568 311.048 119.775 311.048 108.188C311.048 94.9455 321.863 91.5798 333.891 90.3107C334.344 90.2619 334.785 90.2147 335.214 90.1689C344.955 89.1268 348.347 88.7639 348.347 84.9587V84.6828C348.347 79.7722 344.485 76.5168 338.029 76.5168C331.574 76.5168 327.215 79.8825 326.718 84.738H312.759C313.366 73.9787 322.58 65.5368 338.14 65.5368C353.258 65.5368 362.693 73.4821 362.693 84.738V124.685H348.844V116.464H348.623ZM325.063 107.967C325.118 112.436 328.87 115.029 334.829 115.029C343.602 115.029 348.457 109.843 348.457 103.167V96.987C346.692 98.0905 341.505 99.0285 335.877 99.801C330.029 100.629 325.008 102.836 325.063 107.967Z" fill="black"/>
<path d="M270.432 43.4665H284.833V124.685H270.432V43.4665Z" fill="black"/>
<path d="M306.052 43.4665H291.651V124.685H306.052V43.4665Z" fill="black"/>
</svg>
